HIERARCHY
ROOT Hips
{
  OFFSET 5.84602e-005 68.8428 3.50346
  CHANNELS 6 Xposition Yposition Zposition Zrotation Xrotation Yrotation
  JOINT Spine
  {
    OFFSET 0 8.597 -4.6522
    CHANNELS 3 Zrotation Xrotation Yrotation
    JOINT Spine1
    {
      OFFSET 0 7.8454 0.4098
      CHANNELS 3 Zrotation Xrotation Yrotation
      JOINT Spine2
      {
        OFFSET 0 9.7078 -2.1609
        CHANNELS 3 Zrotation Xrotation Yrotation
        JOINT Neck
        {
          OFFSET 0 21.8761 -0.4549
          CHANNELS 3 Zrotation Xrotation Yrotation
          JOINT Head
          {
            OFFSET 0 12.3537 3.3602
            CHANNELS 3 Zrotation Xrotation Yrotation
            End Site
            {
              OFFSET 0.0001 18.9506 0.5657
            }
          }
        }
        JOINT LeftShoulder
        {
          OFFSET 2.2086 21.1115 7.2329
          CHANNELS 3 Zrotation Xrotation Yrotation
          JOINT LeftArm
          {
            OFFSET 13.1193 3.0282 -4.8998
            CHANNELS 3 Zrotation Xrotation Yrotation
            JOINT LeftForeArm
            {
              OFFSET 27.4081 -0.0973053 -0.2375
              CHANNELS 3 Zrotation Xrotation Yrotation
              JOINT LeftHand
              {
                OFFSET 22.8641 0.0662994 -0.1369
                CHANNELS 3 Zrotation Xrotation Yrotation
                JOINT LeftHandIndex1
                {
                  OFFSET 8.8614 0.775009 2.4612
                  CHANNELS 3 Zrotation Xrotation Yrotation
                  JOINT LeftHandIndex2
                  {
                    OFFSET 3.3146 -0.808304 0.5841
                    CHANNELS 3 Zrotation Xrotation Yrotation
                    JOINT LeftHandIndex3
                    {
                      OFFSET 2.2628 -0.552002 0.3989
                      CHANNELS 3 Zrotation Xrotation Yrotation
                      End Site
                      {
                        OFFSET 1.6102 -0.4807 0.2612
                      }
                    }
                  }
                }
                JOINT LeftHandMiddle1
                {
                  OFFSET 8.9937 0.895004 0.2143
                  CHANNELS 3 Zrotation Xrotation Yrotation
                  JOINT LeftHandMiddle2
                  {
                    OFFSET 4.0984 0.0113983 -0.0242
                    CHANNELS 3 Zrotation Xrotation Yrotation
                    JOINT LeftHandMiddle3
                    {
                      OFFSET 2.2716 0.00689697 -0.0138001
                      CHANNELS 3 Zrotation Xrotation Yrotation
                      End Site
                      {
                        OFFSET 2.0404 -0.1441 0.0027
                      }
                    }
                  }
                }
                JOINT LeftHandRing1
                {
                  OFFSET 8.5234 0.597198 -2.0164
                  CHANNELS 3 Zrotation Xrotation Yrotation
                  JOINT LeftHandRing2
                  {
                    OFFSET 3.7188 -0.188293 -0.2328
                    CHANNELS 3 Zrotation Xrotation Yrotation
                    JOINT LeftHandRing3
                    {
                      OFFSET 2.1191 -0.106598 -0.1332
                      CHANNELS 3 Zrotation Xrotation Yrotation
                      End Site
                      {
                        OFFSET 1.8737 -0.2304 -0.0886
                      }
                    }
                  }
                }
                JOINT LeftHandPinky1
                {
                  OFFSET 7.9094 -0.601089 -3.4825
                  CHANNELS 3 Zrotation Xrotation Yrotation
                  JOINT LeftHandPinky2
                  {
                    OFFSET 2.2874 -0.477005 -0.6314
                    CHANNELS 3 Zrotation Xrotation Yrotation
                    JOINT LeftHandPinky3
                    {
                      OFFSET 1.6774 -0.349396 -0.4633
                      CHANNELS 3 Zrotation Xrotation Yrotation
                      End Site
                      {
                        OFFSET 1.4888 -0.4091 -0.3416
                      }
                    }
                  }
                }
                JOINT LeftHandThumb1
                {
                  OFFSET 1.833 -1.3875 1.3896
                  CHANNELS 3 Zrotation Xrotation Yrotation
                  JOINT LeftHandThumb2
                  {
                    OFFSET 3.4129 -1.121 2.5732
                    CHANNELS 3 Zrotation Xrotation Yrotation
                    JOINT LeftHandThumb3
                    {
                      OFFSET 2.2474 -0.804199 1.6192
                      CHANNELS 3 Zrotation Xrotation Yrotation
                      End Site
                      {
                        OFFSET 1.6527 -0.5689 1.1317
                      }
                    }
                  }
                }
              }
            }
          }
        }
        JOINT RightShoulder
        {
          OFFSET -2.2086 21.1115 7.2329
          CHANNELS 3 Zrotation Xrotation Yrotation
          JOINT RightArm
          {
            OFFSET -13.1216 3.0287 -4.9007
            CHANNELS 3 Zrotation Xrotation Yrotation
            JOINT RightForeArm
            {
              OFFSET -27.4081 -0.0973053 -0.2375
              CHANNELS 3 Zrotation Xrotation Yrotation
              JOINT RightHand
              {
                OFFSET -22.8641 0.0664063 -0.1369
                CHANNELS 3 Zrotation Xrotation Yrotation
                JOINT RightHandIndex1
                {
                  OFFSET -8.8614 0.774994 2.4612
                  CHANNELS 3 Zrotation Xrotation Yrotation
                  JOINT RightHandIndex2
                  {
                    OFFSET -3.3146 -0.808304 0.5841
                    CHANNELS 3 Zrotation Xrotation Yrotation
                    JOINT RightHandIndex3
                    {
                      OFFSET -2.2628 -0.552002 0.3989
                      CHANNELS 3 Zrotation Xrotation Yrotation
                      End Site
                      {
                        OFFSET -1.6102 -0.4807 0.2612
                      }
                    }
                  }
                }
                JOINT RightHandMiddle1
                {
                  OFFSET -8.9937 0.894989 0.2143
                  CHANNELS 3 Zrotation Xrotation Yrotation
                  JOINT RightHandMiddle2
                  {
                    OFFSET -4.0984 0.0113983 -0.0242
                    CHANNELS 3 Zrotation Xrotation Yrotation
                    JOINT RightHandMiddle3
                    {
                      OFFSET -2.2716 0.00691223 -0.0138001
                      CHANNELS 3 Zrotation Xrotation Yrotation
                      End Site
                      {
                        OFFSET -2.0404 -0.1441 0.0027
                      }
                    }
                  }
                }
                JOINT RightHandRing1
                {
                  OFFSET -8.5234 0.597198 -2.0164
                  CHANNELS 3 Zrotation Xrotation Yrotation
                  JOINT RightHandRing2
                  {
                    OFFSET -3.7188 -0.188309 -0.2328
                    CHANNELS 3 Zrotation Xrotation Yrotation
                    JOINT RightHandRing3
                    {
                      OFFSET -2.1191 -0.106598 -0.1332
                      CHANNELS 3 Zrotation Xrotation Yrotation
                      End Site
                      {
                        OFFSET -1.8737 -0.2304 -0.0886
                      }
                    }
                  }
                }
                JOINT RightHandPinky1
                {
                  OFFSET -7.9094 -0.601105 -3.4825
                  CHANNELS 3 Zrotation Xrotation Yrotation
                  JOINT RightHandPinky2
                  {
                    OFFSET -2.2874 -0.477005 -0.6314
                    CHANNELS 3 Zrotation Xrotation Yrotation
                    JOINT RightHandPinky3
                    {
                      OFFSET -1.6774 -0.349396 -0.4633
                      CHANNELS 3 Zrotation Xrotation Yrotation
                      End Site
                      {
                        OFFSET -1.4888 -0.4091 -0.3416
                      }
                    }
                  }
                }
                JOINT RightHandThumb1
                {
                  OFFSET -1.833 -1.38751 1.3896
                  CHANNELS 3 Zrotation Xrotation Yrotation
                  JOINT RightHandThumb2
                  {
                    OFFSET -3.41299 -1.12099 2.5732
                    CHANNELS 3 Zrotation Xrotation Yrotation
                    JOINT RightHandThumb3
                    {
                      OFFSET -2.24741 -0.804108 1.6192
                      CHANNELS 3 Zrotation Xrotation Yrotation
                      End Site
                      {
                        OFFSET -1.6527 -0.5689 1.1317
                      }
                    }
                  }
                }
              }
            }
          }
        }
      }
    }
  }
  JOINT RightUpLeg
  {
    OFFSET -9.1966 3.8861 -0.7581
    CHANNELS 3 Zrotation Xrotation Yrotation
    JOINT RightLeg
    {
      OFFSET -0.7359 -41.0265 0
      CHANNELS 3 Zrotation Xrotation Yrotation
      JOINT RightFoot
      {
        OFFSET 0 -40.2855 0
        CHANNELS 3 Zrotation Xrotation Yrotation
        JOINT RightToeBase
        {
          OFFSET 0 -5.6122 11.7359
          CHANNELS 3 Zrotation Xrotation Yrotation
          End Site
          {
            OFFSET 0 0 7.8731
          }
        }
      }
    }
  }
  JOINT LeftUpLeg
  {
    OFFSET 9.1965 3.8864 -0.7581
    CHANNELS 3 Zrotation Xrotation Yrotation
    JOINT LeftLeg
    {
      OFFSET 0.7359 -41.0268 0
      CHANNELS 3 Zrotation Xrotation Yrotation
      JOINT LeftFoot
      {
        OFFSET 0 -40.2855 0
        CHANNELS 3 Zrotation Xrotation Yrotation
        JOINT LeftToeBase
        {
          OFFSET 0 -5.6122 11.7359
          CHANNELS 3 Zrotation Xrotation Yrotation
          End Site
          {
            OFFSET 0 0 7.8731
          }
        }
      }
    }
  }
}
MOTION
Frames:	4
Frame Time:	0.0333333
5.84602e-005 68.8428 3.50346 0 0 -0 0 0 -0 0 0 -0 0 0 -0 0 0 -0 0 0 -0 0 0 -0 0 0 -0 0 0 -0 0 0 -0 0 0 -0 0 0 -0 0 0 -0 0 0 -0 -0.0146107 -8.87603e-005 -2.63497e-007 2.99804e-018 -2.42657e-020 -1.42182e-022 0 0 -0 -0.0187562 -0.001176 5.858e-005 5.06224e-018 3.88251e-019 1.21329e-020 0 0 -0 -0.012269 -0.00324817 0.000675346 -1.74678e-018 3.88251e-019 -0 0 0 -0 0 0 -0 0 0 -0 0 0 -0 0 0 -0 0 0 -0 0 0 -0 0 0 -0 0 0 -0 0 0 -0 0 0 -0 0.0149955 -9.10982e-005 2.64101e-007 -9.69331e-018 1.21329e-020 -4.7394e-023 0 0 -0 0.0189956 -0.00119102 -5.96516e-005 -5.41541e-019 0 2.42657e-020 0 0 -0 0.0122698 -0.00324857 -0.000673756 -2.00796e-019 0 -1.94126e-019 0 0 -0 0 0 -0 0 0 -0 3.39842 1.33031 -0.0637918 -5.65207e-008 0.834868 -0.000436188 -3.39935 -2.16518 -0.0642563 -8.89002e-024 -1.18485e-023 -1.48106e-024 -3.39844 1.35642 0.0640283 -3.18788e-007 0.782166 -0.000588827 3.39931 -2.13858 0.0634662 1.1399e-023 0 -0 
3.41603 25.418 19.432 19.3894 17.3912 130.34 -0.266496 11.2923 0.0555414 -0.561321 22.5844 0.171032 -0.561323 22.5845 0.171044 0.000251124 11.9104 -0.000182195 7.11874e-008 8.19055 -5.79866e-006 10.1597 1.84262 -16.0888 -41.1835 5.15966 -23.2882 -4.98307 0.666153 0.153606 -0.176259 -9.5052 -16.8909 -3.18055e-015 0 9.93923e-017 3.18055e-015 0 -0 -3.18055e-015 0 9.93923e-017 -3.18055e-015 0 9.93923e-017 -0.0146205 -9.37233e-005 1.09243e-005 -1.27222e-014 0 -9.93923e-017 -3.18055e-015 0 9.93923e-017 -0.0187373 -0.00117784 6.09814e-005 -1.36521e-030 -7.35503e-015 -1.0635e-014 -3.18055e-015 0 9.93923e-017 -0.0122744 -0.00324361 0.000673488 9.54166e-015 -6.55989e-015 -1.02374e-014 -3.18055e-015 0 9.93923e-017 3.18055e-015 0 -0 -3.18055e-015 0 9.93923e-017 -9.20893 2.88206 16.7714 40.5525 4.79521 22.9411 4.67315 0.66973 -0.153839 0.248073 -10.8962 17.5196 -1.93358e-007 2.10593e-007 2.59937e-007 -1.02374e-014 7.95139e-016 7.95139e-016 1.92823e-007 8.38641e-008 6.64761e-008 -1.93358e-007 2.10593e-007 2.59937e-007 0.0150298 -9.1126e-005 -4.78423e-007 -1.94358e-007 2.10633e-007 2.59909e-007 -1.93358e-007 2.10593e-007 2.59937e-007 0.0189832 -0.00118992 -5.85498e-005 1.94091e-007 8.37958e-008 6.64563e-008 -1.93358e-007 2.10593e-007 2.59937e-007 0.0123081 -0.00325883 -0.000678758 -1.94171e-007 2.10836e-007 2.59965e-007 -1.93358e-007 2.10593e-007 2.59937e-007 -1.02374e-014 7.95139e-016 7.95139e-016 1.92823e-007 8.38641e-008 6.64761e-008 -22.5959 -43.6803 -60.1336 7.15888 37.9233 36.5498 -12.7827 25.304 -25.4237 -4.56889e-007 -3.49401e-007 1.16997e-007 22.5705 -43.6653 60.1017 -7.17858 37.9118 -36.533 12.7695 25.3001 25.4161 -1.921e-006 1.38174e-006 4.80679e-007 
-2.30141 6.35637 27.3447 -10.2012 36.7695 -163.268 -0.360213 16.3214 -0.0225831 -0.763219 32.6427 0.0718973 -0.763214 32.6427 0.0718965 -8.25616e-005 16.9701 4.62666e-005 -2.2397e-006 11.6648 6.95136e-007 14.946 2.84113 -23.3017 -58.4012 6.772 -33.8911 -7.22442 1.02101 0.152648 -2.32855 -12.8277 -24.4963 7.95139e-016 3.18055e-015 1.59028e-015 1.91301e-007 -5.84793e-007 -5.84777e-007 1.91301e-007 -5.84793e-007 -5.84777e-007 7.95139e-016 3.18055e-015 1.59028e-015 -0.014601 -8.61336e-005 -2.12879e-006 1.76182e-007 6.61003e-007 -9.56516e-007 7.95139e-016 3.18055e-015 1.59028e-015 -0.0187704 -0.00117655 5.69259e-005 1.9128e-007 -5.84698e-007 -5.84875e-007 7.95139e-016 3.18055e-015 1.59028e-015 -0.0122421 -0.00323878 0.000673855 1.91272e-007 -5.84734e-007 -5.84844e-007 7.95139e-016 3.18055e-015 1.59028e-015 1.91301e-007 -5.84793e-007 -5.84777e-007 1.91301e-007 -5.84793e-007 -5.84777e-007 -13.7994 4.23863 24.2878 57.5966 6.31386 33.3701 6.77481 1.03108 -0.153146 2.7729 -14.6532 25.5122 -1.32417e-031 3.18055e-015 2.38542e-015 -2.64834e-031 -6.36111e-015 -2.38542e-015 -1.59028e-015 3.18055e-015 2.38542e-015 -1.32417e-031 3.18055e-015 2.38542e-015 0.0149803 -9.02654e-005 1.74989e-006 7.95139e-016 -3.18055e-015 -3.18055e-015 -1.32417e-031 3.18055e-015 2.38542e-015 0.0189987 -0.00119354 -6.04155e-005 -0 0 7.95139e-016 -1.32417e-031 3.18055e-015 2.38542e-015 0.0122577 -0.00324355 -0.000670908 -7.95139e-016 0 -7.95139e-016 -1.32417e-031 3.18055e-015 2.38542e-015 -2.64834e-031 -6.36111e-015 -2.38542e-015 -1.59028e-015 3.18055e-015 2.38542e-015 -52.4046 -32.8442 -90.4439 -7.54516 42.7824 63.1551 -8.88834 33.0625 -40.4484 1.27232e-006 -2.0016e-007 8.19279e-006 52.3722 -32.8489 90.4121 7.5068 42.7798 -63.1258 8.87334 33.0599 40.4357 6.87572e-007 -4.80161e-007 -1.76988e-007 
-0.782249 10.7019 24.6822 -1.83715e-015 36.4338 180 -0.343536 15.0862 0.00138723 -0.727632 30.1723 0.106362 -0.727633 30.1723 0.106362 -1.2249e-007 15.1785 7.78618e-007 -1.95517e-007 10.4227 -2.36205e-008 13.582 3.27855 -21.6095 -54.6352 6.47104 -31.5278 -6.72645 0.939172 0.152904 -2.34948 -11.492 -22.0446 -5.35097e-007 1.1822e-006 1.06206e-006 -1.07019e-006 2.36439e-006 2.12412e-006 -5.35097e-007 1.1822e-006 1.06206e-006 -5.35097e-007 1.1822e-006 1.06206e-006 -0.0146203 -8.86195e-005 -4.14772e-007 -5.35055e-007 1.18206e-006 1.06221e-006 -5.35097e-007 1.1822e-006 1.06206e-006 -0.0187442 -0.00117473 5.91875e-005 -5.35032e-007 1.18203e-006 1.06226e-006 -5.35097e-007 1.1822e-006 1.06206e-006 -0.0122242 -0.00323267 0.000669891 -5.35025e-007 1.18209e-006 1.0622e-006 -5.35097e-007 1.1822e-006 1.06206e-006 -1.07019e-006 2.36439e-006 2.12412e-006 -5.35097e-007 1.1822e-006 1.06206e-006 -12.5226 4.54384 22.4765 53.8644 6.02805 31.0464 6.30787 0.947531 -0.153349 2.66376 -13.153 22.9285 2.38542e-015 0 -0 1.59028e-015 0 -1.59028e-015 2.38542e-015 -3.18055e-015 -1.59028e-015 2.38542e-015 0 -0 0.0149755 -9.16162e-005 -2.25946e-006 -2.64834e-031 -9.54166e-015 -1.59028e-015 2.38542e-015 0 -0 0.0189532 -0.00118995 -5.96303e-005 2.38542e-015 6.36111e-015 -0 2.38542e-015 0 -0 0.0122461 -0.00324135 -0.000676459 4.77083e-015 2.54444e-014 -1.59028e-015 2.38542e-015 0 -0 1.59028e-015 0 -1.59028e-015 2.38542e-015 -3.18055e-015 -1.59028e-015 -46.9595 -35.7228 -85.4306 -4.08737 43.4527 57.2946 -10.6894 31.3845 -36.3771 -3.72017e-007 1.4676e-006 3.05977e-006 46.9282 -35.7235 85.3974 4.05353 43.4479 -57.268 10.6754 31.3813 36.366 -7.58664e-007 3.48342e-007 1.76161e-007 
